<svg id="Layer_1" data-name="Layer 1" xmlns="http://www.w3.org/2000/svg" xmlns:xlink="http://www.w3.org/1999/xlink" viewBox="0 0 1000 1000"><defs><style>.cls-1,.cls-2,.cls-3{opacity:0.5;isolation:isolate;}.cls-1{fill:url(#radial-gradient);}.cls-2{fill:url(#radial-gradient-2);}.cls-3{fill:url(#radial-gradient-3);}.cls-4{fill:#1b98e0;}.cls-5{fill:#ff6663;}.cls-6{fill:#00bd9d;}</style><radialGradient id="radial-gradient" cx="-1492.13" cy="1074.46" r="198.69" gradientTransform="matrix(0.92, 0, 0, -0.9, 1668.84, 1308.89)" gradientUnits="userSpaceOnUse"><stop offset="0" stop-color="#1b98e0"/><stop offset="0.32" stop-color="#1b98e0"/><stop offset="1" stop-color="#10474f" stop-opacity="0"/></radialGradient><radialGradient id="radial-gradient-2" cx="-1066.12" cy="1106.16" r="271.83" gradientTransform="matrix(0.92, 0, 0, -0.9, 1668.84, 1308.89)" gradientUnits="userSpaceOnUse"><stop offset="0" stop-color="#ff6663"/><stop offset="0.47" stop-color="#ff6663"/><stop offset="1" stop-color="#10474f" stop-opacity="0"/></radialGradient><radialGradient id="radial-gradient-3" cx="-1492.66" cy="672.1" r="252.6" gradientTransform="matrix(0.92, 0, 0, -0.9, 1668.84, 1308.89)" gradientUnits="userSpaceOnUse"><stop offset="0" stop-color="#00bd9d"/><stop offset="0.47" stop-color="#00bd9d"/><stop offset="1" stop-color="#10474f" stop-opacity="0"/></radialGradient></defs><ellipse class="cls-1" cx="294.37" cy="341.87" rx="182.49" ry="179.26"/><ellipse class="cls-2" cx="687.97" cy="313.35" rx="249.67" ry="245.25"/><ellipse class="cls-3" cx="294.37" cy="704" rx="232" ry="227.9"/><path class="cls-4" d="M294.38,140.45l173,340.47H121.34Z"/><path class="cls-5" d="M517.52,312.89c0-97.93,72-170,170.92-170,97.93,0,170,72.05,170,170,0,98.87-72,170.9-169.5,170.9C589.56,483.79,517.52,411.76,517.52,312.89Z"/><path class="cls-6" d="M464.81,828.77c0,25.44-19.21,45.68-42.89,45.68-19.21,0-35.29-12.25-41.54-29.67-25.92,18.84-58.08,29.67-93.82,29.67-94.28,0-162.64-72-162.64-170.91,0-97.93,68.36-170,162.18-170,92.93,0,161.29,72.05,161.29,170a191.9,191.9,0,0,1-17,80C450.08,787.81,464.81,806.65,464.81,828.77Z"/></svg>